Coordinates
version=1
nRows=14
nColumns=33
inDegrees=yes

Units are S.I. units (second, meters, Newtons, ...)
Angles are in degrees.

endheader
time	ground_thorax_rot_x	ground_thorax_rot_y	ground_thorax_rot_z	ground_thorax_tx	ground_thorax_ty	ground_thorax_tz	clav_prot_r	clav_elev_r	scapula_abduction_r	scapula_elevation_r	scapula_upward_rot_r	scapula_winging_r	shoulder_elv_r	plane_of_elev_r	axial_rot_r	elbow_flexion_r	pro_sup_r	wrist_flex_r	wrist_dev_r	clav_prot_l	clav_elev_l	scapula_abduction_l	scapula_elevation_l	scapula_upward_rot_l	scapula_winging_l	shoulder_elv_l	plane_of_elev_l	axial_rot_l	elbow_flexion_l	pro_sup_l	wrist_flex_l	wrist_dev_l
      6.38000000	    -40.31944881	    -15.39157825	     10.13933491	   -119.63711089	    796.26892921	     -1.20760535	      8.23324266	    -45.00000000	     33.47013723	    -45.00000000	    -41.71919541	  -1531.38574998	  -2094.43123796	     28.80692147	     86.26847025	   2170.83104883	     24.84556394	     18.00701863	      9.71976694	     17.92691620	     39.99735568	    -40.38739132	    -45.00000000	    -45.00000000	   3318.46468991	  -3699.32060159	    135.89529298	   -179.99999979	   1805.51068615	   -339.14083919	     11.75979685	    -19.78914806
      6.39000000	    -40.46182367	    -15.35272161	     10.06317292	   -125.00643697	    796.53001989	     -1.52898713	      8.06315442	    -45.00000000	     33.07358321	    -45.00000000	    -43.11148908	  -1531.40718756	  -2094.09220843	     28.86187790	     85.32795616	   2170.79884765	     25.12204058	     18.09066992	      9.88023724	     17.51168546	     40.05778813	    -40.08040990	    -45.00000000	    -45.00000000	   3318.75068642	  -3699.34983853	    135.87051120	   -179.99999979	   1805.46834711	   -338.13675619	     11.84221494	    -19.90301578
      6.40000000	    -40.49749306	    -15.31109642	     10.00527401	   -130.45080279	    796.88161693	     -1.84234961	      8.11956655	    -45.00000000	     32.77209170	    -45.00000000	    -43.91163588	  -1531.66108320	  -2093.91950519	     28.85852692	     85.72796647	   2170.73051591	     25.49596508	     18.07468258	      9.84722567	     17.34696325	     39.98619530	    -39.68609365	    -45.00000000	    -45.00000000	   3318.82336853	  -3699.40744343	    136.03243016	   -179.99999979	   1805.56913055	   -337.02469927	     11.93791356	    -20.08058266
      6.41000000	    -40.59778442	    -15.23400025	      9.90007231	   -135.94813119	    797.33713376	     -2.14860508	      8.26441707	    -45.00000000	     32.50565547	    -45.00000000	    -44.57760840	  -1532.01160803	  -2093.84007042	     28.87482193	     86.44492981	   2170.73147067	     25.90392172	     18.03332427	      9.71582627	     17.23141425	     39.93270388	    -39.25254306	    -45.00000000	    -45.00000000	   3318.89363296	  -3699.32179397	    136.17803834	   -179.99999979	   1805.65098151	   -335.94352691	     12.11575281	    -20.28110052
      6.42000000	    -40.66539700	    -15.11304780	      9.74060973	   -141.47426162	    797.90610450	     -2.45208718	      8.30810559	    -45.00000000	     32.35509649	    -45.00000000	    -45.00000000	  -1532.31113981	  -2093.71183868	     28.75438789	     86.63000027	   2170.73928209	     26.28251724	     18.08159594	      9.80474990	     17.07394951	     39.86925908	    -38.87980918	    -45.00000000	    -45.00000000	   3318.98051424	  -3699.38193941	    136.30436280	   -179.99999979	   1805.67379641	   -334.88317919	     12.12240408	    -20.40734936
      6.43000000	    -40.70827681	    -14.89069834	      9.53850850	   -147.00307324	    798.59670371	     -2.75568303	      8.41482094	    -45.00000000	     32.28712960	    -45.00000000	    -45.00000000	  -1532.79249167	  -2093.71293216	     28.59223321	     87.52062152	   2170.75487460	     26.70868621	     18.06817136	      9.72154994	     16.93133188	     39.77804326	    -38.55132348	    -45.00000000	    -45.00000000	   3318.99369980	  -3699.38737979	    136.47661633	   -179.99999979	   1805.73347225	   -333.86967687	     12.22367218	    -20.57209285
      6.44000000	    -40.72501983	    -14.68529359	      9.31914770	   -152.51107038	    799.41902858	     -3.06015124	      8.43856638	    -45.00000000	     32.22992875	    -45.00000000	    -45.00000000	  -1533.09679402	  -2093.58366264	     28.34568802	     87.91709461	   2170.73016586	     27.17724222	     18.11092485	      9.80836676	     16.83431435	     39.67334354	    -38.16884131	    -45.00000000	    -45.00000000	   3319.02354014	  -3699.46807442	    136.60804210	   -179.99999979	   1805.81152821	   -332.87129661	     12.20651830	    -20.70879532
      6.45000000	    -40.81871356	    -14.42732098	      9.03759881	   -157.97774785	    800.37998258	     -3.36519919	      8.50504884	    -45.00000000	     32.19947393	    -45.00000000	    -45.00000000	  -1533.44739699	  -2093.54890954	     28.15934733	     88.53845018	   2170.81440477	     27.69983086	     18.14853004	      9.78346562	     16.67945083	     39.58308277	    -37.82072707	    -45.00000000	    -45.00000000	   3319.10849318	  -3699.44901427	    136.70748625	   -179.99999979	   1805.87267717	   -331.94980600	     12.30475376	    -20.88087575
      6.46000000	    -40.83411654	    -14.20024349	      8.91096775	   -163.38135617	    801.48404208	     -3.66883568	      8.63493933	    -45.00000000	     32.08848396	    -45.00000000	    -45.00000000	  -1533.99616817	  -2093.51152519	     28.07244490	     89.63675594	   2170.86706922	     28.24813405	     18.12718620	      9.61349367	     16.55391932	     39.45103267	    -37.48436680	    -45.00000000	    -45.00000000	   3319.11363601	  -3699.50050022	    136.86161873	   -179.99999979	   1805.88431210	   -331.03783437	     12.45070375	    -21.07000385
      6.47000000	    -40.82456623	    -14.17810250	      8.93701154	   -168.69904629	    802.73293693	     -3.96828396	      8.56902003	    -45.00000000	     32.03300979	    -45.00000000	    -45.00000000	  -1534.62536484	  -2093.56328397	     28.00146242	     91.16668885	   2170.86466731	     28.83140950	     18.11803946	      9.48613221	     16.70966965	     39.23420191	    -37.00345665	    -45.00000000	    -45.00000000	   3319.01764850	  -3699.61544049	    137.26126374	   -179.99999979	   1805.98619044	   -330.17608777	     12.26056826	    -21.11552955
      6.48000000	    -40.95558006	    -13.73381415	      8.51360295	   -173.91131421	    804.12920861	     -4.25997194	      8.70258855	    -45.00000000	     31.99985849	    -45.00000000	    -45.00000000	  -1534.76245373	  -2093.42758182	     27.78122132	     90.79835207	   2170.97276197	     29.31470973	     18.19467965	      9.52439210	     16.32835746	     39.23195127	    -36.80182623	    -45.00000000	    -45.00000000	   3319.25221583	  -3699.60068906	    137.17464066	   -179.99999979	   1805.97954597	   -329.23173580	     12.53602919	    -21.42635971
      6.49000000	    -40.96224591	    -13.58489681	      8.41671433	   -178.99536907	    805.66502837	     -4.53979582	      8.61266442	    -45.00000000	     31.94859080	    -45.00000000	    -45.00000000	  -1535.30940897	  -2093.44590472	     27.76305182	     91.89265281	   2170.97597406	     29.88605885	     18.19179391	      9.39333951	     16.40295625	     39.07713644	    -36.32986542	    -45.00000000	    -45.00000000	   3319.17030441	  -3699.61880631	    137.43008105	   -179.99999979	   1806.09436736	   -328.39724122	     12.37416026	    -21.49471862
      6.50000000	    -41.06264605	    -13.24602016	      8.07432067	   -183.93327685	    807.33883655	     -4.80428093	      8.55271376	    -45.00000000	     31.97493680	    -45.00000000	    -45.00000000	  -1535.58876722	  -2093.46118014	     27.68740974	     92.32874194	   2171.07817556	     30.39945508	     18.25992633	      9.37176410	     16.34646997	     38.98799535	    -35.93206099	    -45.00000000	    -45.00000000	   3319.28270560	  -3699.52532213	    137.49060973	   -179.99999979	   1806.29071965	   -327.53135175	     12.30354365	    -21.66783772
      6.51000000	    -41.12807661	    -12.87134559	      7.80764447	   -188.70399361	    809.14194665	     -5.05021021	      8.57375417	    -45.00000000	     31.92777314	    -45.00000000	    -45.00000000	  -1535.89970693	  -2093.36864514	     27.61779231	     92.48363972	   2171.17998884	     30.87665530	     18.31077957	      9.29962550	     16.09233432	     39.00385991	    -35.66078662	    -45.00000000	    -45.00000000	   3319.36419337	  -3699.53181748	    137.53304136	   -179.99999979	   1806.31145682	   -326.61417043	     12.38729805	    -21.91312587
